<?xml version="1.0" standalone="no"?>
<!DOCTYPE svg PUBLIC "-//W3C//DTD SVG 20010904//EN"
 "http://www.w3.org/TR/2001/REC-SVG-20010904/DTD/svg10.dtd">
<svg version="1.0" xmlns="http://www.w3.org/2000/svg"
 width="330.000000pt" height="330.000000pt" viewBox="0 0 330.000000 330.000000"
 preserveAspectRatio="xMidYMid meet">
<metadata>
Created by potrace 1.11, written by Peter Selinger 2001-2013
</metadata>
<g transform="translate(0.000000,330.000000) scale(0.100000,-0.100000)"
fill="#000000" stroke="none">
<path d="M565 3281 c-48 -22 -79 -54 -100 -103 -13 -33 -15 -205 -15 -1528 0
-1323 2 -1495 15 -1528 20 -47 50 -79 97 -103 35 -18 73 -19 805 -19 l768 0
358 359 357 358 0 1212 c0 1071 -2 1216 -15 1249 -21 49 -52 81 -100 103 -38
18 -90 19 -1085 19 -995 0 -1047 -1 -1085 -19z m2119 -147 c14 -14 16 -133 16
-1162 l0 -1147 -257 0 c-142 -1 -270 -4 -286 -8 -40 -11 -104 -73 -118 -115
-9 -26 -13 -115 -14 -292 l0 -255 -697 -3 c-623 -2 -698 0 -712 14 -14 14 -16
160 -16 1484 0 1322 2 1470 16 1484 14 14 121 16 1034 16 913 0 1020 -2 1034
-16z"/>
<path d="M1029 2960 c-119 -33 -148 -181 -59 -303 38 -53 30 -72 -44 -106 -33
-15 -78 -44 -99 -63 -35 -34 -38 -40 -35 -85 3 -45 6 -49 42 -67 62 -30 150
-44 260 -41 146 4 234 28 255 68 11 22 10 67 -4 99 -9 22 -99 83 -148 99 -51
18 -57 47 -22 93 101 133 55 297 -88 310 -17 2 -44 0 -58 -4z"/>
<path d="M2415 2880 c-23 -26 -13 -68 19 -76 53 -13 91 41 55 77 -24 24 -51
24 -74 -1z"/>
<path d="M1713 2879 c-79 -16 -133 -76 -133 -149 0 -48 29 -91 94 -139 78 -58
92 -89 59 -130 -24 -30 -85 -34 -147 -10 -28 10 -51 17 -53 16 -1 -2 -5 -19
-8 -38 -7 -46 16 -60 114 -66 66 -4 82 -1 121 19 75 39 102 115 66 189 -9 19
-41 52 -72 74 -68 49 -89 83 -73 119 22 49 70 54 175 21 14 -4 21 -2 21 7 0 7
3 25 6 40 7 25 4 28 -33 38 -53 14 -98 17 -137 9z"/>
<path d="M1960 2727 c0 -1 -11 -56 -25 -122 -30 -142 -31 -185 -7 -215 37 -45
129 -35 182 22 l20 22 0 -32 c0 -18 3 -32 8 -33 4 0 22 -2 40 -3 17 -2 32 -1
33 3 4 36 15 87 40 201 16 74 29 141 29 148 0 9 -12 12 -42 10 l-43 -3 -21
-98 c-25 -111 -56 -167 -104 -187 -66 -27 -81 16 -50 150 10 41 20 90 23 108
l7 32 -45 0 c-25 0 -45 -1 -45 -3z"/>
<path d="M2362 2627 c-43 -202 -42 -236 7 -257 24 -10 85 -9 96 2 2 2 5 16 7
33 3 25 0 29 -22 30 -35 0 -36 24 -6 160 14 63 26 119 26 125 0 5 -19 10 -43
10 l-44 0 -21 -103z"/>
<path d="M773 2033 c-28 -27 -29 -44 -4 -74 l19 -24 849 -1 c466 0 860 4 875
9 34 11 45 50 23 83 -8 13 -19 25 -23 25 -4 1 -392 2 -862 3 l-855 1 -22 -22z"/>
<path d="M781 1746 c-11 -5 -23 -22 -27 -39 -5 -25 -2 -35 18 -52 24 -20 28
-20 882 -20 l858 0 19 24 c25 30 24 53 -2 77 -20 18 -50 19 -875 19 -474 0
-862 -4 -873 -9z"/>
<path d="M786 1447 c-17 -6 -27 -19 -32 -40 -5 -25 -2 -35 18 -52 24 -20 28
-20 873 -20 468 1 860 4 872 8 29 10 38 53 18 83 -8 13 -21 25 -28 25 -59 6
-1703 2 -1721 -4z"/>
<path d="M790 1148 c-47 -17 -48 -90 -2 -105 15 -5 409 -9 875 -9 l849 1 19
24 c25 30 24 53 -2 77 -20 18 -50 19 -870 19 -467 0 -858 -3 -869 -7z"/>
</g>
</svg>
